<svg xmlns="http://www.w3.org/2000/svg" viewBox="0 0 48 48" role="img" aria-label="Discord">
  <rect width="48" height="48" rx="10" fill="#5865f2"/>
  <path d="M17.5 15.5c2.1-.9 4.2-1.4 6.5-1.4s4.4.5 6.5 1.4l1.2 3.4c1.4 1.9 2.1 4.4 2.1 7.6 0 0-2.4 3.6-7.1 3.8l-.9-1.7c1.8-.5 2.8-1.4 2.8-1.4-1.8.9-3.4 1.3-4.6 1.3s-2.8-.4-4.6-1.3c0 0 1 .9 2.8 1.4l-.9 1.7c-4.7-.2-7.1-3.8-7.1-3.8 0-3.2.7-5.7 2.1-7.6l1.2-3.4Z" fill="#ffffff"/>
  <circle cx="20" cy="24" r="2" fill="#5865f2"/>
  <circle cx="28" cy="24" r="2" fill="#5865f2"/>
</svg>
